<?xml version="1.0" standalone="no"?>
<!DOCTYPE svg PUBLIC "-//W3C//DTD SVG 20010904//EN"
 "http://www.w3.org/TR/2001/REC-SVG-20010904/DTD/svg10.dtd">
<svg version="1.0" xmlns="http://www.w3.org/2000/svg"
 width="2272.000000pt" height="2272.000000pt" viewBox="0 0 2272.000000 2272.000000"
 preserveAspectRatio="xMidYMid meet">
<metadata>
Created by potrace 1.14, written by Peter Selinger 2001-2017
</metadata>
<g transform="translate(0.000000,2272.000000) scale(0.100000,-0.100000)"
fill="#000000" stroke="none">
<path d="M10638 14305 c-2 -2 -147 -6 -323 -10 -176 -4 -363 -8 -415 -10 -164
-5 -422 -15 -510 -20 -130 -6 -299 -16 -355 -20 -136 -9 -243 -17 -275 -20
-19 -2 -71 -6 -115 -10 -139 -11 -395 -44 -408 -52 -4 -2 -26 -6 -49 -9 -23
-2 -58 -9 -77 -16 -20 -7 -38 -13 -41 -13 -35 -7 -77 -19 -90 -26 -8 -4 -49
-24 -90 -44 -41 -21 -103 -57 -136 -81 -59 -41 -194 -165 -194 -177 0 -3 -11
-18 -25 -33 -34 -36 -104 -154 -138 -230 -24 -55 -69 -209 -81 -277 -3 -15 -7
-35 -10 -45 -6 -23 -17 -88 -21 -132 -2 -19 -4 -35 -5 -35 -3 0 -9 -40 -15
-90 -3 -27 -8 -61 -10 -75 -6 -38 -18 -153 -29 -280 -4 -41 -9 -95 -11 -120
-2 -25 -7 -92 -11 -150 -3 -58 -7 -127 -9 -155 -26 -406 -26 -1219 0 -1615 2
-25 6 -101 10 -170 3 -69 8 -136 10 -150 3 -23 7 -56 20 -200 9 -101 30 -276
41 -345 3 -16 7 -43 10 -60 39 -240 101 -450 155 -526 10 -15 19 -30 19 -34 0
-18 100 -146 161 -206 88 -87 174 -148 290 -204 89 -43 247 -91 334 -101 22
-3 82 -11 134 -19 52 -7 124 -16 160 -20 36 -3 84 -8 106 -10 213 -21 469 -37
755 -50 69 -2 177 -7 240 -10 635 -28 2029 -40 2735 -22 468 11 624 16 735 21
58 3 168 8 245 12 77 3 163 7 190 9 28 2 104 6 170 10 66 4 136 8 155 10 19 2
76 6 125 10 355 27 612 69 755 121 251 93 460 280 579 521 36 73 67 154 75
199 2 10 9 37 14 59 11 41 13 51 31 145 19 99 31 183 46 310 3 25 7 59 10 75
3 17 8 59 10 95 3 36 8 85 10 110 9 110 15 181 20 265 3 50 8 119 10 155 13
213 19 450 19 790 1 421 -7 659 -29 980 -4 47 -8 114 -11 150 -5 81 -12 159
-18 213 -3 23 -8 69 -11 102 -16 149 -43 327 -71 465 -39 189 -102 343 -189
465 -50 70 -153 178 -210 220 -22 17 -42 32 -45 35 -10 11 -76 49 -147 84 -66
33 -208 80 -272 91 -144 24 -215 34 -266 39 -33 4 -76 8 -95 10 -119 14 -204
21 -345 31 -38 3 -104 7 -145 10 -41 3 -115 7 -165 10 -49 2 -137 7 -195 10
-102 6 -174 8 -540 20 -96 3 -245 8 -330 11 -166 5 -1847 14 -1852 9z"/>
</g>
</svg>
